<svg width="204" height="337" viewBox="0 0 204 337" fill="none" xmlns="http://www.w3.org/2000/svg">
<path d="M114.501 68.5767L119.933 76.5524C117.436 78.1545 114.452 80.6465 110.983 84.0283C107.671 87.4648 104.431 91.4557 101.263 96.001C98.3077 100.444 96.2453 105.108 95.076 109.995C97.2388 109.865 99.2647 110.128 101.154 110.784C104.617 111.988 107.119 114.181 108.66 117.363C110.413 120.443 110.605 123.95 109.237 127.886C107.65 132.452 105.026 135.686 101.365 137.59C97.7588 139.336 93.909 139.497 89.8158 138.075C83.6761 135.941 79.7707 132.201 78.0995 126.856C76.6404 121.409 77.0326 115.458 79.276 109.003C80.7534 104.753 83.1854 100.04 86.5721 94.8648C90.1162 89.7445 94.2901 84.8431 99.0936 80.1606C103.897 75.4781 109.033 71.6168 114.501 68.5767ZM157.951 83.6788L163.384 91.6544C160.886 93.2565 157.902 95.7485 154.433 99.1303C151.121 102.567 147.882 106.558 144.714 111.103C141.758 115.546 139.696 120.21 138.526 125.097C140.689 124.967 142.715 125.23 144.604 125.886C148.068 127.09 150.57 129.283 152.11 132.465C153.863 135.545 154.056 139.053 152.688 142.988C151.101 147.554 148.477 150.788 144.816 152.692C141.209 154.438 137.359 154.599 133.266 153.177C127.126 151.043 123.221 147.303 121.55 141.958C120.091 136.511 120.483 130.56 122.726 124.105C124.204 119.855 126.636 115.142 130.022 109.967C133.567 104.847 137.74 99.9452 142.544 95.2626C147.347 90.5801 152.483 86.7188 157.951 83.6788Z" fill="url(#paint0_linear_1_51)"/>
<defs>
<linearGradient id="paint0_linear_1_51" x1="137.942" y1="64.1166" x2="-180.985" y2="382.507" gradientUnits="userSpaceOnUse">
<stop stop-color="#FCFCFC" stop-opacity="0"/>
<stop offset="1" stop-color="white" stop-opacity="0.5"/>
</linearGradient>
</defs>
</svg>
